<svg width="32" height="32" viewBox="0 0 32 32" fill="none" xmlns="http://www.w3.org/2000/svg">
<path fill-rule="evenodd" clip-rule="evenodd" d="M5.52851 5.52858C5.78886 5.26823 6.21097 5.26823 6.47132 5.52858L15.9999 15.0572L25.5285 5.52858C25.7889 5.26823 26.211 5.26823 26.4713 5.52858C26.7317 5.78892 26.7317 6.21103 26.4713 6.47138L16.9427 16L26.4712 25.5285C26.7316 25.7888 26.7316 26.2109 26.4712 26.4713C26.2109 26.7316 25.7888 26.7316 25.5284 26.4713L15.9999 16.9428L6.47132 26.4714C6.21097 26.7317 5.78886 26.7317 5.52851 26.4714C5.26816 26.211 5.26816 25.7889 5.52851 25.5286L15.0571 16L5.52851 6.47138C5.26816 6.21103 5.26816 5.78892 5.52851 5.52858Z" fill="black"/>
</svg>
